<?xml version="1.0" standalone="no"?>
<!DOCTYPE svg PUBLIC "-//W3C//DTD SVG 20010904//EN"
 "http://www.w3.org/TR/2001/REC-SVG-20010904/DTD/svg10.dtd">
<svg version="1.0" xmlns="http://www.w3.org/2000/svg"
 width="512.000000pt" height="512.000000pt" viewBox="0 0 512.000000 512.000000"
 preserveAspectRatio="xMidYMid meet">

<g transform="translate(0.000000,512.000000) scale(0.100000,-0.100000)"
fill="#000000" stroke="none">
<path d="M2070 4894 c0 -40 -38 -218 -71 -333 -146 -509 -446 -967 -818 -1250
-244 -186 -594 -353 -863 -412 -32 -7 -58 -15 -58 -19 0 -3 35 -14 78 -24 272
-64 602 -223 845 -408 371 -283 670 -740 816 -1249 33 -115 71 -293 71 -333 0
-14 5 -26 10 -26 6 0 10 12 10 28 0 48 49 263 86 382 258 820 827 1385 1605
1593 65 18 119 34 119 37 0 3 -54 19 -119 37 -778 208 -1348 773 -1605 1593
-37 119 -86 334 -86 383 0 15 -4 27 -10 27 -5 0 -10 -12 -10 -26z"/>
<path d="M3827 2318 c-11 -77 -57 -221 -103 -317 -154 -327 -440 -577 -783
-685 -45 -14 -91 -26 -102 -26 -10 0 -19 -4 -19 -10 0 -5 9 -10 19 -10 31 0
176 -48 260 -86 191 -88 409 -273 524 -445 99 -149 185 -358 204 -496 3 -24 9
-43 13 -43 4 0 10 19 13 43 19 138 105 347 204 496 111 167 318 345 506 435
82 40 245 96 276 96 12 0 21 5 21 10 0 6 -9 10 -21 10 -31 0 -194 56 -276 96
-188 90 -395 268 -506 435 -99 149 -185 358 -204 497 -3 23 -9 42 -13 42 -4 0
-10 -19 -13 -42z"/>
</g>
</svg>
